<svg id="Layer_1" data-name="Layer 1" xmlns="http://www.w3.org/2000/svg" viewBox="0 0 50 35.45"><defs><style>.cls-1{fill:#69693a;}.cls-2{fill:#b2b18d;}</style></defs><circle class="cls-1" cx="25" cy="17.73" r="17.73"/><path class="cls-2" d="M38.7,10.16h9.2l1.75-1.45H29.31a3.72,3.72,0,0,1,1.18,3.88,3.52,3.52,0,0,1-2.65,2.53l-.09,0-1-1.81.09,0A3.45,3.45,0,0,1,27.88,13h.05a.89.89,0,0,1,.47.25,3.45,3.45,0,0,0,.24-.82,14.11,14.11,0,0,0-1.46-.22h-.07l-.24-.63a8.19,8.19,0,0,0-1.64-.17l-1,.1L22.07,15l0,.07-.09,0a3.45,3.45,0,0,1-2.42-2.46,3.71,3.71,0,0,1,1.17-3.88H.35l1.72,1.47h9.39l.61.51H2.69L4.16,12h9.28l.13.11.07,0c.27,0,.31.16.42.4l0,0h0a1,1,0,0,1-.14.24.36.36,0,0,1-.42-.24H4.78l1.47,1.26h6.11c0-.08,0-.18.12-.26a.32.32,0,0,1,.31.24v0h2.65l.46.4c.31-.05.52.5-.13.75a.39.39,0,0,1-.16-.51l.09-.12h-.08l-.07.07-.07-.07h-.11c0,.11,0,.22-.14.26a.24.24,0,0,1-.07-.26H6.87L8.4,15.56h3.3a.48.48,0,0,0,0-.31,1.09,1.09,0,0,0,.81-.43l.07.07a1,1,0,0,0,0,.67h.19s0-.07,0-.11.11.05.11.11h.08c.06-.07,0-.22.19-.3-.12-.12-.24,0-.36,0,0-.25-.17-.5.13-.77a.43.43,0,0,1,.3.58,1.34,1.34,0,0,1,.44.48H15.9a.21.21,0,0,1,.28,0h1.34l.57.53h-2a0,0,0,0,1,0,0h-.69a.08.08,0,0,0,0,.05c-.06,0-.12.07-.18.13v-.18H14.7a.38.38,0,0,1-.29.44.43.43,0,0,1-.22-.44h-.34v0c-.18.09-.35.11-.53.19l-.26-.21H12.3l-.12.07-.07-.07h-.47a1,1,0,0,1-.27.45.48.48,0,0,1,0-.45H9l1.65,1.41h1.37c.06,0,.09,0,.11,0h.55a.27.27,0,0,1,.1-.19.27.27,0,0,1,.13.19H15.7v0s.07-.07.05-.1c.57-.37,1.18.19,1.76,0a.38.38,0,0,1,.09.09h4.28l.11.14a1.8,1.8,0,0,0,.61.05s0,0,0,.08a1.93,1.93,0,0,1-.47.08l.45.55-3.08,1.9.78.14-2.12,1.25a.67.67,0,0,1,.09.21c-.26.44-.71.08-.57-.19a.29.29,0,0,1,.11-.11c-.22-.25-.68-.78-.77-.87s-.12-.07-.33-.07a2.08,2.08,0,0,0-.72.14.92.92,0,0,0-.65.74,1.4,1.4,0,0,1,.78-.43h.08a.8.8,0,0,1,.38.1.41.41,0,0,1,.21-.2c.09.07,0,.14.16.2a.51.51,0,0,1-.14.18,2,2,0,0,1,.31.39l.11.22L17,21.9a1.61,1.61,0,0,0-.44-.06,1.4,1.4,0,0,0-.54.1.92.92,0,0,0-.62.74c.18-.08.4.22,0,.35a1.91,1.91,0,0,0,.31.34,1,1,0,0,1,0-.56,1,1,0,0,1,.93-.5.94.94,0,0,1,.3.05l.23.09-.23.08a.73.73,0,0,0-.48.63.64.64,0,0,0,.54.64h.08a1.9,1.9,0,0,0,.44-.07h0l0,0c-.26-.1-.53-.25-.55-.49a.39.39,0,0,1,.15-.32A1.36,1.36,0,0,1,18,22.6l.19,0h0a.76.76,0,0,0,.27-.11c.13.07.15.14.24.27a.36.36,0,0,1,0,.09.59.59,0,0,1,.16.2c.08-.07.15,0,.22,0a.34.34,0,0,0,0-.1,1,1,0,0,0-.45-.75l-.18-.11,1.39-.4v.64L21.27,22,20,23.68a.32.32,0,0,1,.37.31.59.59,0,0,1-.68.19l0-.05-1,1.34,1.19.65L22,22.49l.41.24-.76,1.44a.4.4,0,0,1,.35.16h0c.25,0,.31.17.25.39a.25.25,0,0,1-.34-.14c-.17.07-.34.16-.51.07l-.94,1.78,1.11.6L23.17,23l.41.33-1.46,4.06,1.16.64.27-1.27a.34.34,0,0,1-.25-.22.4.4,0,0,1,.34-.16l.16-.73c-.25.22-.57.29-.75.06.15-.31.5-.23.75-.08l.44-2,.46.2-.81,4.53,1.13.61,1.16-.63-.8-4.51.47-.2.19.91a.45.45,0,0,1,.22.12l-.17.08L26.8,28,28,27.34,26.5,23.29l.4-.33L28.54,27l1.11-.61L27.7,22.73l.42-.24,2.09,3.61,1.17-.63L31,25a.18.18,0,0,1-.14-.15h0L28.77,22l1.43.35V21.7l1.39.4-.18.11A1,1,0,0,0,31,23a.58.58,0,0,0,.22.46l0-.11c0-.29.33-.59.73-.68a1.1,1.1,0,0,1,.87.23.45.45,0,0,1,.16.36c0,.25-.3.4-.54.49a2.61,2.61,0,0,0,.54.1H33a.64.64,0,0,0,.55-.64.73.73,0,0,0-.48-.63l-.24-.08.24-.09a.84.84,0,0,1,.29-.05,1.06,1.06,0,0,1,.94.5,1,1,0,0,1,0,.56c.2-.18.39-.38.38-.52a.9.9,0,0,0-.64-.91,1.32,1.32,0,0,0-.53-.1,1.65,1.65,0,0,0-.45.06l-.25.09.11-.22s.4-.72,1-.66a1.31,1.31,0,0,1,.78.43.94.94,0,0,0-.65-.77,2.08,2.08,0,0,0-.72-.14.63.63,0,0,0-.34.07c-.11.12-.87,1-.87,1l-.07.07-2.31-1.36.78-.14-3-1.85-.09-.05.73-.9H39.31L41,16.09h-9l.19-.17-.12,0c-.2-.27-.37-.08-.62-.29.2-.29.83-.4,1,0l.12-.12h9.12l1.52-1.29h-4a.25.25,0,0,1,0,.08L39,14.25H34l.61-.53h4a.31.31,0,0,1,0-.19.42.42,0,0,0,.16.19h5.09l1.46-1.25H36l.62-.53h9.28l1.46-1.25H37.93l.59-.53Z"/></svg>