<svg id="Layer_1" data-name="Layer 1" xmlns="http://www.w3.org/2000/svg" viewBox="0 0 50 35.72"><defs><style>.cls-1{fill:#cb2b31;}.cls-2{fill:#fff;}</style></defs><circle class="cls-1" cx="25" cy="17.86" r="17.73"/><polygon class="cls-2" points="33.85 16.93 38 14.87 38.59 12.96 33.85 15.31 33.85 16.93"/><path d="M17.36,24.23l7.32,4.32.28.17,7.35-4.29.33-.19V12.84H17.36Zm1.25-10.07H31.32v9.32L24.94,27.2l-6.33-3.71Z"/><polygon class="cls-2" points="12 14.87 16.14 16.93 16.14 15.31 11.41 12.96 12 14.87"/><polygon class="cls-2" points="22.99 11.63 6.58 3.48 7.25 5.67 19.26 11.63 22.99 11.63"/><polygon class="cls-2" points="8.4 6.7 9.07 8.88 16.14 12.39 16.14 11.63 18.35 11.63 8.4 6.7"/><polygon class="cls-2" points="10.6 12.02 16.14 14.77 16.14 12.92 9.94 9.84 10.6 12.02"/><polygon class="cls-2" points="33.85 14.77 39.4 12.02 40.06 9.84 33.85 12.92 33.85 14.77"/><polygon class="cls-2" points="33.85 11.63 33.85 12.39 40.93 8.88 41.6 6.7 31.65 11.63 33.85 11.63"/><polygon class="cls-2" points="27.01 11.63 30.74 11.63 42.75 5.67 43.42 3.48 27.01 11.63"/><path class="cls-2" d="M25.57,16.46l-.36,1.19h-1l-1.42,4.78h-1.7l1.42-4.79h-1l.36-1.2Z"/><path class="cls-2" d="M28.64,20a13,13,0,0,1-.43,1.28,2.06,2.06,0,0,1-.49.68,2.2,2.2,0,0,1-.8.47,2.75,2.75,0,0,1-1,.16,2.15,2.15,0,0,1-.89-.16,1,1,0,0,1-.53-.47,1.08,1.08,0,0,1-.1-.69q.06-.36.33-1.29l.31-1c.18-.6.32-1,.42-1.28A1.9,1.9,0,0,1,26,17a2.27,2.27,0,0,1,.79-.48,3,3,0,0,1,1-.16,2.36,2.36,0,0,1,.89.16,1,1,0,0,1,.53.48,1.06,1.06,0,0,1,.1.68c0,.25-.16.68-.34,1.3Zm-1.11-2a1.83,1.83,0,0,0,.11-.53c0-.08-.07-.12-.17-.12a.33.33,0,0,0-.24.1A1.58,1.58,0,0,0,27,18l-.83,2.8a2.49,2.49,0,0,0-.14.64c0,.08.06.12.17.12a.29.29,0,0,0,.27-.14,2.92,2.92,0,0,0,.24-.67Z"/></svg>