<svg id="Layer_1" data-name="Layer 1" xmlns="http://www.w3.org/2000/svg" viewBox="0 0 50 35.72"><defs><style>.cls-1{fill:#fff;}.cls-2{fill:#cb2b31;}</style></defs><circle class="cls-1" cx="25" cy="17.86" r="17.73"/><polygon class="cls-2" points="30.26 25.42 32.88 22.82 25.01 22.82 25.01 25.42 30.26 25.42"/><path class="cls-2" d="M25,12.4V9.54h0a7.47,7.47,0,0,0-3.24-1.95h0l.52.76-.87-.3-.57.73,0-.93L20,7.55l.66-.2a7.4,7.4,0,0,0-3.33.31l.48.7-.87-.31-.57.74,0-.75A7.27,7.27,0,0,0,14.45,9.4l.24.3.87-.3-.27.39-.25.37.56.74-.89-.26-.53.76,0-.93-.51-.15a7.4,7.4,0,0,0-1,1.92l.74-.22-.29.38-.27.36.52.77-.88-.31-.14.18a8.62,8.62,0,0,0-.12,1.6,7.7,7.7,0,0,0,.48,2.4l.69-.21-.31.42-.19.25c.09.2.19.39.29.58l.18.25h0a7.93,7.93,0,0,0,.83,1.1v-.48l.57.73.87-.31-.32.48-.2.29.56.73h0l.85.82v-.18l.38.56.19.19.84-.25-.34.46-.12.15,2.13,2.12L20,24.9l-.29.43.1.09L22,27.62l.28-.09-.16.21.29.29,2,2h0l0,0,.52.52h0L27.64,28H25V20h0v.2h.86c.23,0,9.63,0,9.63,0l0,0a7.49,7.49,0,0,0,1.73-2.56H32V15h5.86a7.67,7.67,0,0,0-.39-2.6Zm6.49,5.21v.69h1v1.39H28.74v-.52a3.61,3.61,0,0,1-2.16.62A4.57,4.57,0,0,1,25,19.54h0a2.91,2.91,0,0,1-1.81-1.93A4.09,4.09,0,0,1,23,16.5h0a2.21,2.21,0,0,1-.75.71,2.53,2.53,0,0,1-.37.18l.14.17,0,.05,1.53,2v.11h-2L21,18.9l-.17-.23L20.39,18l-.16-.22-.15-.2,0,0h-.65v2.12H17.56v-6.5h3.29a3.08,3.08,0,0,1,.54.06l.2,0,.4.14a2.11,2.11,0,0,1,1.09,1.05,2.05,2.05,0,0,1,.19.64,3.24,3.24,0,0,0-.16.53,3.39,3.39,0,0,0-.09.78v.07a2.26,2.26,0,0,0,.11-.22,2.14,2.14,0,0,0,.16-.87c0-.1,0-.2,0-.3a3.55,3.55,0,0,1,.21-.44A3.11,3.11,0,0,1,25,13.36h0a4.1,4.1,0,0,1,1.56-.28h0a3.31,3.31,0,0,1,2.34.94l2.59-.94v4.53ZM20,12.72l.88-.27v0l0-.87.53.76.89-.26L22,12.4l-.28.37.08.12a3.77,3.77,0,0,0-1.09-.16H20Zm3.65-3,.88-.31-.27.39-.25.38.56.73-.89-.26-.53.76,0-.92-.88-.27.87-.31V9ZM18.6,9l.57.73L20,9.4l-.27.39-.25.37.56.74-.89-.26-.53.76,0-.92-.88-.27.87-.31V9.79Zm-2.18,2.56.53.76.89-.26-.28.37-.26.33h-.19v.56l-.19-.07-.56.73,0-.92-.87-.31.88-.27v0Zm-3.15,3.84.87-.31V15l0-.86.56.73.88-.3-.3.43-.22.33.56.74-.89-.26-.53.76,0-.93Zm2.23,2.51.89-.26h0l0-.92.52.76.17-.05v1.06l-.19-.07-.57.73,0-.92Zm2.24,2.66.87-.31v-.09h1.15l-.05.07-.2.29.56.74L19.18,21l-.53.76,0-.93Zm6.81,5.87-.89-.26-.53.76,0-.93-.88-.26.81-.3.06,0,0-.92.57.73.87-.3-.35.51-.17.25Zm-2.28-2.54-.87-.31-.57.73,0-.92L20,23.06l.79-.24.1,0,0-.93.52.76.89-.25-.34.45-.22.28Zm1.92-3.66-.2.29.56.74L23.66,21l-.52.76,0-.93-.89-.26.87-.31v-.1h1V19.9l.38-.13.05,0Z"/><path class="cls-2" d="M35.73,9.6A7.48,7.48,0,0,0,25,9.53v.26H35.9Z"/><path class="cls-2" d="M14.14,9.79V9.72l-.06.07-.16.18.23-.08Z"/><polygon class="cls-2" points="28.74 19.16 28.74 19.17 28.74 19.17 28.74 19.17 28.74 19.16"/><path class="cls-2" d="M28.74,19.16a2.74,2.74,0,0,0,.45-.39l-.41-.47h0Z"/><path class="cls-2" d="M28.8,14.35l-.64.65-.24.23a2,2,0,0,0-.27-.23,2,2,0,0,0-2.18,0,1.55,1.55,0,0,0-.46.59,2.05,2.05,0,0,0-.17.85,2.12,2.12,0,0,0,.17.85,1.5,1.5,0,0,0,.19.32,1.61,1.61,0,0,0,1.37.6,2.16,2.16,0,0,0,1.49-.6l.05-.05,0,.05.63.69h1V15.21l-1,.28V14.35l.23-.23-.11-.1-.12,0Zm.53,3.26h-.57l-.31-.35-.32-.36-.34.35a1.86,1.86,0,0,1-.52.36H25.89a1.3,1.3,0,0,1-.59-1.18,1.18,1.18,0,0,1,1.28-1.31,1.39,1.39,0,0,1,1,.45l.32.29.3-.31.11-.1v.64l.57-.16.41-.12Z"/><path class="cls-2" d="M20.83,14.66H19.41v1.56h1.35c.49,0,.7-.35.7-.79a.67.67,0,0,0-.09-.42A.69.69,0,0,0,20.83,14.66Z"/></svg>