<svg id="Layer_1" data-name="Layer 1" xmlns="http://www.w3.org/2000/svg" viewBox="0 0 50 35.72"><defs><style>.cls-1{fill:#cb2b31;}.cls-2{fill:#fff;}</style></defs><circle class="cls-1" cx="25" cy="17.86" r="17.73"/><polygon class="cls-2" points="14.7 17.36 14.7 17.36 14.69 17.36 14.7 17.36 14.7 17.36"/><path class="cls-2" d="M33.52,26.92V20.41a1.45,1.45,0,0,0-.12-.59,1.51,1.51,0,0,0-.55-.67,1.47,1.47,0,0,0-.4-.19,1.37,1.37,0,0,0-.45-.07H27.93a1.45,1.45,0,0,0-.59.12,1.53,1.53,0,0,0-.93,1.4v6.51H15.92V17.35l.11,0a1.66,1.66,0,0,0,.51-.31,1.79,1.79,0,0,0,.65.36,1.91,1.91,0,0,0,.54.08h.1a1.76,1.76,0,0,0,.66-.12A1.64,1.64,0,0,0,19,17a1.81,1.81,0,0,0,1.2.44h.1a1.84,1.84,0,0,0,.66-.12,1.6,1.6,0,0,0,.53-.32,1.81,1.81,0,0,0,1.2.44h.1a1.84,1.84,0,0,0,.66-.12A1.51,1.51,0,0,0,24,17a1.81,1.81,0,0,0,1.2.44h.1a1.84,1.84,0,0,0,.66-.12,1.64,1.64,0,0,0,.54-.32,1.83,1.83,0,0,0,.64.36,2,2,0,0,0,.55.08h.1a1.8,1.8,0,0,0,.66-.12A1.64,1.64,0,0,0,29,17a1.83,1.83,0,0,0,.64.36,2,2,0,0,0,.55.08h.1a1.76,1.76,0,0,0,.66-.12,1.64,1.64,0,0,0,.54-.32,2,2,0,0,0,.65.36,1.91,1.91,0,0,0,.54.08h.11a1.75,1.75,0,0,0,.65-.12A1.64,1.64,0,0,0,34,17a1.81,1.81,0,0,0,.62.35v9.57Zm-1.1,0H27.51V20.41a.41.41,0,0,1,0-.16.49.49,0,0,1,.16-.19l.11,0,.12,0H32a.41.41,0,0,1,.16,0,.47.47,0,0,1,.19.15.54.54,0,0,1,0,.11.51.51,0,0,1,0,.13v6.51ZM14.7,16.1a.46.46,0,0,1-.08-.13.34.34,0,0,1,0-.14v-.57h0V11.51H16v4.32h0A.35.35,0,0,1,16,16a.5.5,0,0,1-.08.12.73.73,0,0,1-.22.16.83.83,0,0,1-.29.06h-.12a.78.78,0,0,1-.22,0h0a.62.62,0,0,1-.32-.21Zm3.78-2.92v2.65a.33.33,0,0,1,0,.17.38.38,0,0,1-.09.13.66.66,0,0,1-.21.15.75.75,0,0,1-.31.06h-.1a.78.78,0,0,1-.22,0h0a.62.62,0,0,1-.32-.21L17.11,16a.68.68,0,0,1,0-.14h0V11.51h1.39v1.67Zm2.49,0v2.65a.33.33,0,0,1,0,.17.57.57,0,0,1-.08.13.71.71,0,0,1-.22.15.73.73,0,0,1-.3.06h-.1a.85.85,0,0,1-.23,0h0a.62.62,0,0,1-.32-.21.42.42,0,0,1-.07-.13.35.35,0,0,1,0-.14V11.51H21v1.67Zm2.49,0v2.65a.33.33,0,0,1,0,.17.57.57,0,0,1-.08.13.71.71,0,0,1-.22.15.73.73,0,0,1-.3.06h-.1a.85.85,0,0,1-.23,0h0a.64.64,0,0,1-.31-.21A.31.31,0,0,1,22.1,16a.35.35,0,0,1,0-.14V11.51h1.39v1.67Zm2.5,0v2.65a.47.47,0,0,1,0,.17.38.38,0,0,1-.09.13.71.71,0,0,1-.22.15.73.73,0,0,1-.3.06h-.1a.85.85,0,0,1-.23,0h0a.64.64,0,0,1-.31-.21.46.46,0,0,1-.08-.13.35.35,0,0,1,0-.14V11.51H26v1.67Zm2.49,0v2.65a.47.47,0,0,1,0,.17.38.38,0,0,1-.09.13.61.61,0,0,1-.22.15.73.73,0,0,1-.3.06h-.1a.73.73,0,0,1-.22,0h0a.64.64,0,0,1-.31-.21.46.46,0,0,1-.08-.13.35.35,0,0,1,0-.14V11.51h1.4v1.67Zm2.49,0v2.65a.33.33,0,0,1,0,.17.38.38,0,0,1-.09.13.61.61,0,0,1-.22.15.7.7,0,0,1-.3.06h-.1a.78.78,0,0,1-.22,0h0a.62.62,0,0,1-.32-.21L29.57,16a.68.68,0,0,1,0-.14V11.51h1.39v1.67Zm1.2,2.92L32.06,16a.68.68,0,0,1,0-.14V11.51h1.39v4.32h0a.33.33,0,0,1,0,.17.38.38,0,0,1-.09.13.66.66,0,0,1-.21.15.73.73,0,0,1-.3.06h-.11a.78.78,0,0,1-.22,0h0a.62.62,0,0,1-.32-.21Zm3.78-.27a.33.33,0,0,1,0,.17.57.57,0,0,1-.08.13.71.71,0,0,1-.22.15.73.73,0,0,1-.3.06h-.12a.71.71,0,0,1-.21,0h0a.72.72,0,0,1-.32-.21.42.42,0,0,1-.07-.13.35.35,0,0,1,0-.14h0V11.51h1.39v4.32Zm0,1.49a1.81,1.81,0,0,0,.77-.57,2,2,0,0,0,.23-.43,1.57,1.57,0,0,0,.08-.49v-.57h0v-3.9A.94.94,0,0,0,37,11a1.1,1.1,0,0,0-.35-.42,1,1,0,0,0-.25-.12,1.26,1.26,0,0,0-.28,0h0L34.39,8.29h0a1.51,1.51,0,0,0-1.2-.59H23.28a.54.54,0,0,0-.55.55.55.55,0,0,0,.55.55h9.91a.42.42,0,0,1,.33.16h0l1.12,1.45H15.88L17,9h0a.42.42,0,0,1,.33-.16h3.36a.55.55,0,0,0,.55-.55.54.54,0,0,0-.55-.55H17.33a1.51,1.51,0,0,0-1.2.59h0l-1.64,2.12h0a.91.91,0,0,0-.37.08.94.94,0,0,0-.42.34,1.15,1.15,0,0,0-.12.25.9.9,0,0,0,0,.28v4.47a1.5,1.5,0,0,0,.09.52A1.56,1.56,0,0,0,14,17a1.81,1.81,0,0,0,.66.38l.13,0v9.53h-.39a.55.55,0,0,0-.55.55.54.54,0,0,0,.55.55H36.09a.54.54,0,0,0,.55-.55.55.55,0,0,0-.55-.55H35.7V17.39l.24-.07Z"/><path class="cls-2" d="M24,22.88a.47.47,0,0,1,0,.17.44.44,0,0,1-.15.18l-.11.06h-5.2a.41.41,0,0,1-.16,0,.4.4,0,0,1-.19-.15.37.37,0,0,1-.05-.11.51.51,0,0,1,0-.13V20.41a.41.41,0,0,1,0-.16.42.42,0,0,1,.16-.19l.11,0,.12,0h5.07a.41.41,0,0,1,.16,0,.47.47,0,0,1,.19.15.54.54,0,0,1,0,.11.51.51,0,0,1,0,.13v2.47Zm.43-3.73A1.34,1.34,0,0,0,24,19a1.33,1.33,0,0,0-.45-.07H18.52a1.45,1.45,0,0,0-.59.12,1.57,1.57,0,0,0-.67.55,1.34,1.34,0,0,0-.19.4,1.63,1.63,0,0,0-.07.45v2.47a1.5,1.5,0,0,0,.67,1.26,1.23,1.23,0,0,0,.4.19,1.33,1.33,0,0,0,.45.07h5.07a1.45,1.45,0,0,0,.59-.12,1.39,1.39,0,0,0,.67-.55,1.41,1.41,0,0,0,.19-.39,1.43,1.43,0,0,0,.07-.46V20.41a1.53,1.53,0,0,0-.67-1.26Z"/></svg>