<svg id="Layer_1" data-name="Layer 1" xmlns="http://www.w3.org/2000/svg" viewBox="0 0 50 35.72"><defs><style>.cls-1{fill:#002d90;}.cls-2{fill:#fc0;}</style></defs><circle class="cls-1" cx="25" cy="17.86" r="17.73"/><polygon class="cls-2" points="25 29.79 25.38 28.6 26.64 28.6 25.62 27.86 26.01 26.68 25 27.41 23.99 26.68 24.38 27.87 23.36 28.59 24.61 28.59 25 29.79"/><polygon class="cls-2" points="30.19 28.4 30.57 27.21 31.83 27.21 30.81 26.47 31.2 25.29 30.19 26.02 29.18 25.29 29.57 26.48 28.55 27.21 29.8 27.21 30.19 28.4"/><polygon class="cls-2" points="19.81 28.4 20.19 27.21 21.45 27.21 20.43 26.47 20.82 25.29 19.81 26.02 18.8 25.29 19.18 26.48 18.17 27.21 19.42 27.21 19.81 28.4"/><polygon class="cls-2" points="33.99 24.6 34.37 23.41 35.63 23.41 34.61 22.67 35 21.48 33.99 22.22 32.97 21.48 33.36 22.68 32.34 23.41 33.6 23.41 33.99 24.6"/><polygon class="cls-2" points="16.02 24.6 16.4 23.41 17.66 23.41 16.64 22.67 17.03 21.48 16.02 22.22 15.01 21.48 15.39 22.68 14.38 23.41 15.63 23.41 16.02 24.6"/><polygon class="cls-2" points="35.38 19.42 35.77 18.23 37.03 18.23 36 17.49 36.4 16.31 35.38 17.04 34.37 16.31 34.76 17.5 33.74 18.23 34.99 18.23 35.38 19.42"/><polygon class="cls-2" points="14.62 19.42 15 18.23 16.26 18.23 15.24 17.49 15.63 16.31 14.62 17.04 13.6 16.31 13.99 17.5 12.97 18.23 14.23 18.23 14.62 19.42"/><polygon class="cls-2" points="16.02 14.24 16.4 13.05 17.66 13.05 16.64 12.32 17.03 11.13 16.02 11.87 15.01 11.13 15.39 12.33 14.38 13.05 15.63 13.05 16.02 14.24"/><polygon class="cls-2" points="33.99 14.24 34.37 13.05 35.63 13.05 34.61 12.32 35 11.13 33.99 11.87 32.97 11.13 33.36 12.33 32.34 13.05 33.6 13.05 33.99 14.24"/><polygon class="cls-2" points="30.19 10.43 30.57 9.24 31.83 9.24 30.81 8.5 31.2 7.32 30.19 8.05 29.18 7.32 29.57 8.51 28.55 9.24 29.8 9.24 30.19 10.43"/><polygon class="cls-2" points="19.81 10.43 20.19 9.24 21.45 9.24 20.43 8.5 20.82 7.32 19.81 8.05 18.8 7.32 19.18 8.51 18.17 9.24 19.42 9.24 19.81 10.43"/><polygon class="cls-2" points="25 9.04 25.38 7.86 26.64 7.86 25.62 7.12 26.01 5.93 25 6.67 23.99 5.93 24.38 7.13 23.36 7.85 24.61 7.85 25 9.04"/></svg>